<svg xmlns="http://www.w3.org/2000/svg" viewBox="0 0 204.74 189.71"><defs><style>.cls-1{fill:#aeadad;}</style></defs><title>Asset 1</title><g id="Layer_2" data-name="Layer 2"><g id="Layer_1-2" data-name="Layer 1"><path class="cls-1" d="M0,95.54c1.86-2.6,4-4.86,7.58-3.65s4.21,4.41,4.21,7.77c0,16.4.37,32.8-.1,49.18-.51,17.53,12.24,29.35,29.14,29.21,41.32-.35,82.65-.1,124-.12,14.11,0,24.28-7.51,27.44-20.37a37.51,37.51,0,0,0,.76-8.72c.07-15.73,0-31.46,0-47.19a25.25,25.25,0,0,1,.21-4c.54-3.38,2.64-5.35,6-5.16a5.4,5.4,0,0,1,5.47,5.78c-.11,19.72.32,39.47-.79,59.13-.91,16.34-16.57,30.52-33,31.74-4.38.33-8.78.51-13.17.52q-58.39.06-116.77,0c-10,0-19.23-2.28-27.08-8.9A37,37,0,0,1,.63,157.42,11.06,11.06,0,0,0,0,155.55Z"/><path class="cls-1" d="M96.6,123.48v-4.3q0-55,0-109.92a24.74,24.74,0,0,1,.24-4.78c.6-3,2.75-4.55,5.74-4.48A5.16,5.16,0,0,1,108,4.45a28.69,28.69,0,0,1,.25,5.18q0,54.76,0,109.52v5.13c1.39-1.16,2.29-1.8,3.06-2.57,7.55-7.53,15.05-15.1,22.64-22.58,1.2-1.18,2.69-2.68,4.17-2.83,1.88-.19,4.49.29,5.66,1.53s1.41,3.85,1.18,5.75c-.16,1.35-1.63,2.67-2.74,3.78q-16.92,17-33.91,33.92c-4.61,4.6-7.11,4.59-11.75,0q-16.85-16.79-33.67-33.6c-.66-.66-1.34-1.3-1.93-2-2.15-2.63-2.29-5.36,0-8,2.09-2.41,5.58-2.62,8.22-.17,4.68,4.35,9.13,9,13.65,13.48,4.31,4.32,8.59,8.67,12.89,13Z"/></g></g></svg>