<svg xmlns="http://www.w3.org/2000/svg" viewBox="0 0 586.98 87.69"><defs><style>.cls-1{fill:#fff;}</style></defs><title>Asset 1</title><g id="Layer_2" data-name="Layer 2"><g id="Layer_1-2" data-name="Layer 1"><path class="cls-1" d="M356.12,36.8c2-3.78,3.77-7.71,6.06-11.3,3.92-6.13,8.08-12.12,12.35-18,1.54-2.14,3.56-4,6.7-2.26A7.11,7.11,0,0,1,385.1,13c-.63,4.26-1.4,8.51-2.13,12.75a147.27,147.27,0,0,0-1.58,38.37c.19,2.12,0,4.26,0,6.42-7.08-1.48-9.79-4.27-9.91-10.89-.17-8.86,0-17.72,0-26.58l-1.32-.29c-1.93,3.7-3.87,7.4-5.78,11.11-3.2,6.19-5.85,6.85-11.6,2.72a27.06,27.06,0,0,1-4-3.59c-1.18-1.27-2.14-2.76-3.2-4.15l-1.11,0-8.78,48.78c-2.47-1.17-5.18-2.3-7.69-3.75a3.29,3.29,0,0,1-1-2.7c.86-7.48,1.69-15,2.85-22.42,2.68-17.15,5.62-34.26,8.24-51.42.47-3,1.46-3.25,4-2.32,5.28,2,8,5.55,8.57,11.19.59,5.46,1.77,10.86,2.83,16.26a26,26,0,0,0,1.59,4.22Z"/><path class="cls-1" d="M172,85.93c-2.09,0-3.77.11-5.42,0-3.58-.28-5.37-2.64-5.15-6.26q2-31.43,3.89-62.87c.08-1.29,0-2.59,0-4.07l-6.23-.92c5-5.14,9.83-9.42,16.54-9.16a70.23,70.23,0,0,1,17.87,3c5.74,1.77,7.58,6.56,6.13,12.46-1.63,6.63-5.78,11.75-10.19,16.68-2.72,3-5.48,6-8.29,9.09,8.57,10.73,11.77,23.85,17.29,35.86,1.14,2.48,0,3.89-2.5,3.16-4.24-1.21-7.92-2.53-9.49-7.91-2.2-7.53-5.89-14.61-8.94-21.89-.23-.54-.45-1.09-.67-1.63l-1.61.51C174.15,63.19,173.07,74.47,172,85.93Zm4.65-54.31,1,.32c5.71-4.89,10-10.65,11.47-18.3.54-2.9,0-5-3.32-5.46-4-.6-8,1-8.22,3.9C177.08,18.58,176.93,25.11,176.63,31.63Z"/><path class="cls-1" d="M94.55,58.45c2.21-8.66,4.1-17.3,6.66-25.73a150.93,150.93,0,0,1,7-17.61c1.16-2.59,3.39-5.72,6.41-4.45,1.87.79,3,4.27,3.61,6.75.45,1.92-.17,4.28-.85,6.26-5,14.46-10.14,28.85-15,43.33-1.45,4.28-2,8.83-3.31,13.18s-2.42,4.4-6.35,2C85.18,77.63,84.21,70.32,84,62.82c-.49-16.9-.7-33.8-1-50.7a14.14,14.14,0,0,1,.73-4.22c1-3.45,3.46-4.06,5.61-1.1,2.79,3.84,5.24,7.92,5.2,13.05C94.47,32.69,94.55,45.53,94.55,58.45Z"/><path class="cls-1" d="M445,58.89c1.31-5.41,2.32-10.41,3.76-15.28,2.47-8.35,5.07-16.67,7.93-24.9A19.57,19.57,0,0,1,461,12.15c2.87-3.09,6-2.43,6.9,1.6.66,3.13.91,6.78-.05,9.74-4.74,14.53-10,28.88-14.94,43.37-1.37,4-1.9,8.38-3,12.51-1.46,5.25-2.64,5.29-7.14,2.47-7.21-4.52-7.93-11.66-8.16-18.86-.53-17.13-.69-34.28-1-51.41a5.53,5.53,0,0,1,.34-2.47,45.65,45.65,0,0,1,2.49-4c1.52,1,3.56,1.66,4.47,3.05a23.73,23.73,0,0,1,4.28,14.1C444.75,34.21,445,46.22,445,58.89Z"/><path class="cls-1" d="M511.75,67.86c8.69-6,14-14.32,20.89-22.52.49,2.63.86,4.29,1.1,6s-1.4,3.52,1.17,4.58a4.35,4.35,0,0,1-.54,2.82c-6.64,8.05-13.4,16-20.07,24-1.59,1.91-3.12,1.78-4.93.48s-3.65-2.32-5.26-3.73a5.65,5.65,0,0,1-1.93-3.18c-.69-5.94-1.41-11.9-1.59-17.88-.26-8.76-.2-17.54,0-26.3.08-3.19-.54-5.55-3.57-7a15.38,15.38,0,0,1-2.7-2.27c3.43-4.08,5.84-8.48,11.85-9.71,7.34-1.51,14.4-4.29,21.61-6.46,1.7-.51,3.66-1.94,4.94.73s.3,6-2.15,7.12c-4.34,2-8.67,4.17-13.23,5.45-4,1.13-5.69,2.91-5.34,7.18.28,3.39-.33,6.86-.61,11.34l14.69-8c4.12,5.8,3.49,9.45-2.11,12.89-2.45,1.5-4.87,3.07-7.39,4.43-4.58,2.47-6.36,6.28-5.78,11.34C511.06,61.73,511.35,64.34,511.75,67.86Z"/><path class="cls-1" d="M283.08,30.37c4.08,6.59,3.44,9.5-2.68,13.2-2.56,1.55-5.09,3.16-7.66,4.69a9.61,9.61,0,0,0-5.05,9.6c.23,3.08.6,6.15,1,9.91,8.84-5.72,13.88-14.41,20.39-21.62l1,.27c.13,2.28.27,4.56.39,6.85,0,.43-.2,1.15,0,1.27,3.7,2.39.91,4.26-.55,6-6,7.3-12.21,14.49-18.22,21.81-2.06,2.51-3.95,2-6.06.32-.09-.08-.17-.19-.27-.23-8-3.23-7.29-10.59-7.58-17-.5-10.79-.37-21.62-.17-32.42.07-3.67-.5-6.51-4-8.25a13.31,13.31,0,0,1-2.22-1.9c3.29-3.87,5.43-8.3,11.3-9.56,7.44-1.6,14.63-4.4,21.95-6.6,1.78-.53,3.93-2.1,5.18.86a5.33,5.33,0,0,1-2.4,7A114.52,114.52,0,0,1,274.11,20c-3.57,1.09-5.52,2.4-5.16,6.58.31,3.53-.34,7.14-.65,12Z"/><path class="cls-1" d="M66.94,75.22c-.81-4-1.51-8.3-2.6-12.44-.25-1-1.76-1.91-2.86-2.21a13.78,13.78,0,0,0-4.29,0c-4.77.3-6.17,1.8-6.6,6.68-.29,3.34-.82,6.65-1.17,10-.32,3.08-2.1,4.11-5,3.68-1.17-.18-2.33-.49-3.48-.75-3-.69-4.37-2.09-3.48-5.56,3.43-13.3,6.47-26.7,9.95-40,2-7.49,4.33-14.89,6.86-22.2.58-1.67,2.82-4.13,4-4,3.68.52,8.53-.74,8.88,6.14.58,11.21,2.16,22.38,3.77,33.51.41,2.85,2.49,5.45,3.82,8.16.3.61,1.11,1.45.95,1.72-2.31,3.72.61,7.06.67,10.58,0,2.64.05,5.28.17,7.91.14,3.24-1.59,3-3.64,2S69,76.37,66.94,75.22ZM53.47,52.11c2.32,0,4.23.11,6.11-.07.58-.06,1.62-1,1.54-1.4-.92-4.31-2-8.58-3.07-12.86l-.93.12Z"/><path class="cls-1" d="M20.18,15.46c.28,5,.45,9.7.92,14.34.06.64,1.54,1.61,2.38,1.64,3.24.08,6.57-.65,9.69-.11a14.14,14.14,0,0,1,7,3.58c2.27,2.19,1.13,4.35-2.06,4.84L22.09,42.2c0,8.32,0,16.44,0,24.55,0,4.32.27,8.65.33,13A8.15,8.15,0,0,1,21.81,82c-.79-.29-1.57-.65-2.38-.86C17.76,80.65,16,79.92,14.37,80c-2.17.07-2.67-.75-2.71-2.69-.19-8.89-.37-17.78-.82-26.65-.09-1.81-1.2-3.62-2.09-5.3a39.57,39.57,0,0,0-2.61-3.41c-1.74-2.55-2.2-4.7,1.53-6.05A3.83,3.83,0,0,0,9.54,33c.2-4.51.09-9,.09-12.89C7.14,19.22,4.92,19,3.5,17.86-1.65,13.62-1.08,10.53,5,8.07c9.2-3.74,18.6-2.74,28-1a39.79,39.79,0,0,1,9.58,3.5c.94.45,2,2.75,1.64,3.38a4.91,4.91,0,0,1-3.64,2.08c-5.87-.06-11.74-.5-17.61-.78C22.19,15.24,21.48,15.37,20.18,15.46Z"/><path class="cls-1" d="M423.59,22.3c1.4,5.48,3.34,9.85,1.3,14.66.48,1.16,1.47,2.5,1.53,3.88a54.12,54.12,0,0,1-3.29,22.24c-3.18,8.07-8.88,11.95-16.07,11.23-8.33-.83-14-6-15.16-14.76-1.64-12.2.16-24.17,3.94-35.77,2.17-6.67,6.29-9,13.27-8.39,2.83.23,5.63.86,9.1,1.41l-3.56,5.48c-3.53-2.27-5.4-.16-6.94,2.7-3.57,6.6-4.53,13.9-5,21.15-.41,6,.18,12.16.58,18.23.08,1.23,1.12,3,2.11,3.35s2.49-1,3.41-1.91c5-5.16,6.87-11.71,7.44-18.63.48-5.7,0-11.55,1-17.1C417.78,27.45,421,25.34,423.59,22.3Z"/><path class="cls-1" d="M145.53,22.34c-2.83-1.87-5.07-1-6.07,1.58-1.94,5-4.15,10-4.87,15.24a148.89,148.89,0,0,0-.9,22.2c0,2.21,1.79,4.4,2.76,6.6,1.7-1.37,3.95-2.43,5-4.19,2-3.35,4.12-7,4.7-10.72,1.16-7.4,1.29-14.95,1.88-22.44a2.78,2.78,0,0,1,.52-1.65c1.9-1.89,3.88-3.69,5.81-5.49,2.52,3.73,3.22,11.12,1.13,13.19,3.58,3.63,2,8.16,1.67,12.21A57.28,57.28,0,0,1,154,63.18c-3,8.13-8.87,11.91-16.07,11.12-8.32-.92-13.92-6.18-15-14.89-1.58-12.2.19-24.17,4-35.75,2.16-6.52,6.15-8.79,13-8.27,2.92.22,5.81.89,9.36,1.46Z"/><path class="cls-1" d="M216.33,5.72C221.61,2.15,227.48.79,233.41.31A185.52,185.52,0,0,1,252.09.16c3.17.06,5.66,4.27,4.22,7.09a4,4,0,0,1-2.81,1.52c-8.38.9-8.46.85-8.81,9.26q-1.19,28.6-2.25,57.21c-.16,4-.47,4.19-4,2.31a3.52,3.52,0,0,0-2.32-.55c-3.56,1.17-4.66-.69-4.63-3.72.09-8.86.12-17.73.48-26.59.44-10.79,1.16-21.57,1.84-32.35.19-2.93-.79-3.61-3.55-2.67C223,14.14,220.24,13,216.33,5.72Z"/><path class="cls-1" d="M538.71,70.28c3.74,3.77,5.61,4,9.65.41,4.73-4.15,8.82-8.83,10.11-15.29a8.12,8.12,0,0,0-3.76-9c-4.18-2.8-8.31-5.69-12.62-8.27-5.39-3.21-6.79-7.91-6.17-13.8C537.3,11.18,550,4,560.69,10.59a40.5,40.5,0,0,1,4.24,3.56c-2.66.71-4.7,1.13-6.66,1.79-7,2.36-11.81,9-11.08,16.26a11.13,11.13,0,0,0,3.72,6.53c2.86,2.48,6.44,4.11,9.64,6.21,7.92,5.21,9.72,11,6,19.74-2.86,6.81-7.09,12.54-14,15.78-6.34,3-10.65,1.27-15.88-3.65C534.24,74.48,535.2,71.86,538.71,70.28Z"/><path class="cls-1" d="M488.31,24.6c-1,7.54-2.71,18.07-3.88,28.64-.8,7.24-1.11,14.55-1.24,21.83,0,2.66-1.33,2.45-2.9,2.13a19.13,19.13,0,0,1-5.8-1.71c-1.44-.84-3.4-2.6-3.36-3.9.23-7.62.79-15.25,1.61-22.83,1.16-10.69,2.69-21.33,3.92-32,.24-2.07.95-2.93,3-3.1C487.69,13,488.36,13.57,488.31,24.6Z"/><path class="cls-1" d="M218.59,24.46c-1,7.56-2.62,17.85-3.74,28.19-.81,7.47-1.1,15-1.37,22.53-.08,2.24-1.11,2.42-2.67,2.07a25,25,0,0,1-6.48-1.94c-1.33-.73-3-2.56-3-3.83.32-7.74.93-15.47,1.76-23.18,1.13-10.45,2.63-20.86,3.79-31.31.24-2.2.86-3.19,3.17-3.35C218.08,13.09,218.65,13.56,218.59,24.46Z"/><path class="cls-1" d="M583.7,56a38.45,38.45,0,0,0-4.15-1.91c-3.33-1-4.16-3.29-3.89-6.56.62-7.4,1-14.81,1.48-22.22.43-7,.8-14.05,1.2-21.12,4.5-.49,8.94,3.11,8.63,7.86C586.05,26.46,584.84,40.88,583.7,56Z"/><path class="cls-1" d="M575.79,62.24c6.17.13,8.79,2.84,8.44,8.33-.08,1.3-.41,2.59-.6,3.88-.4,2.73-.87,3.4-4.32,2.42-5.6-1.59-5.14-4.81-4.4-8.86C575.25,66.16,575.48,64.28,575.79,62.24Z"/></g></g></svg>