<?xml version="1.0" encoding="utf-8"?>
<!-- Generator: Adobe Illustrator 16.0.4, SVG Export Plug-In . SVG Version: 6.00 Build 0)  -->
<!DOCTYPE svg PUBLIC "-//W3C//DTD SVG 1.1//EN" "http://www.w3.org/Graphics/SVG/1.1/DTD/svg11.dtd">
<svg version="1.1" id="Layer_1" xmlns="http://www.w3.org/2000/svg" xmlns:xlink="http://www.w3.org/1999/xlink" x="0px" y="0px"
	 width="74.736px" height="74.897px" viewBox="0 0 74.736 74.897" enable-background="new 0 0 74.736 74.897" xml:space="preserve">
<path fill="#FFFFFF" d="M58.347,11.671H16.389c-0.962,0-1.742,0.779-1.742,1.742v41.958c0,0.962,0.78,1.742,1.742,1.742h5.082
	c0.011,0.004,0.022,0.007,0.034,0.01c5.294,0,10.589,0,15.884,0c0-0.003,0-0.006,0-0.01c0-5.698,0-11.396,0-17.135
	c-0.178,0-0.319,0-0.46,0c-1.571,0-3.143-0.004-4.714,0.004c-0.259,0.001-0.39-0.039-0.389-0.351
	c0.013-2.309,0.006-4.617,0.008-6.925c0-0.084,0.015-0.166,0.026-0.285c1.831,0,3.649,0,5.529,0c0-0.176-0.004-0.314,0-0.452
	c0.043-1.388-0.044-2.795,0.161-4.158c0.412-2.737,1.742-4.985,4.034-6.61c1.343-0.951,2.838-1.416,4.481-1.415
	c1.85,0.001,3.699,0,5.548,0c0.119,0,0.238,0,0.384,0c0,2.525,0,5.019,0,7.548c-0.159,0.009-0.312,0.025-0.465,0.025
	c-1.741,0.002-3.481,0-5.221,0c-1.058,0.001-1.732,0.548-1.799,1.617c-0.07,1.117-0.016,2.244-0.016,3.414c2.489,0,4.983,0,7.509,0
	c0.008,0.176,0.019,0.305,0.019,0.434c0.001,2.248-0.007,4.496,0.009,6.744c0.002,0.348-0.111,0.418-0.432,0.416
	c-2.224-0.012-4.448-0.006-6.672-0.007c-0.141,0-0.282,0-0.466,0c0,0.188,0,0.33,0,0.472c0,5.427,0,10.854,0.001,16.28
	c0,0.128,0.019,0.256,0.03,0.384c0,0.004,0.001,0.007,0.001,0.01c2.926,0,5.851,0,8.776,0c0.015-0.003,0.028-0.006,0.043-0.01h5.033
	c0.962,0,1.742-0.78,1.742-1.742v-5.065V18.539v-5.125C60.089,12.451,59.309,11.671,58.347,11.671z"/>
</svg>
