<svg xmlns="http://www.w3.org/2000/svg" viewBox="0 0 157.61 157.69"><defs><style>.cls-1{fill:#fff;}</style></defs><title>Asset 1</title><g id="Layer_2" data-name="Layer 2"><g id="Layer_1-2" data-name="Layer 1"><path class="cls-1" d="M3.71,153.95c3.59-8.58,7-16.8,10.5-24.93a6,6,0,0,0-.6-6.48A74.81,74.81,0,0,1,.92,90.46,75.64,75.64,0,0,1,6.35,48c10.42-23.5,28-39.12,53-45.38,26.4-6.6,50.37-.83,71.11,16.88,14.21,12.13,22.71,27.7,25.95,46.13,7,39.95-18.36,79.42-57.75,89.42-22.1,5.61-42.9,2.09-62.21-10-.77-.48-1.51-1-2.3-1.46a5.59,5.59,0,0,0-5.34-.37c-7.78,3.38-15.6,6.68-23.41,10ZM74.64,91.44h0c0,3.18,0,6.35,0,9.53a4.3,4.3,0,0,0,3.21,4.11,4.1,4.1,0,0,0,4.64-2.3A7.23,7.23,0,0,0,83,100q.07-6.22,0-12.43c0-1.12.18-1.64,1.48-1.9a26.41,26.41,0,0,0,21.1-30c-2.47-15-16.38-25.11-32.29-21.76C61,36.46,52.89,46.46,52.34,59a4.3,4.3,0,0,0,4,4.63,4.16,4.16,0,0,0,4.42-4.15,17.76,17.76,0,0,1,7.52-14.2,17,17,0,0,1,18.44-1.63C92.94,46.71,96.56,52,96.78,59c.33,10.34-7.22,18.29-17.57,18.85-3,.16-4.54,1.73-4.56,4.72S74.64,88.49,74.64,91.44Zm-.71,28.64a4.5,4.5,0,0,0,4.41,4.81,4.59,4.59,0,1,0,.27-9.18A4.5,4.5,0,0,0,73.93,120.08Z"/></g></g></svg>