<?xml version="1.0" encoding="utf-8"?>
<!-- Generator: Adobe Illustrator 16.0.4, SVG Export Plug-In . SVG Version: 6.00 Build 0)  -->
<!DOCTYPE svg PUBLIC "-//W3C//DTD SVG 1.1//EN" "http://www.w3.org/Graphics/SVG/1.1/DTD/svg11.dtd">
<svg version="1.1" id="Layer_1" xmlns="http://www.w3.org/2000/svg" xmlns:xlink="http://www.w3.org/1999/xlink" x="0px" y="0px"
	 width="1300px" height="1280px" viewBox="0 0 1300 1280" enable-background="new 0 0 1300 1280" xml:space="preserve">
<g>
	<path fill-rule="evenodd" clip-rule="evenodd" fill="#FFFFFF" d="M496.09,715.103c3.594-8.578,6.953-16.797,10.496-24.934
		c1.043-2.402,0.883-4.352-0.602-6.48c-6.734-9.688-10.957-20.438-12.684-32.078c-2.16-14.613-0.559-28.895,5.438-42.422
		c10.422-23.504,28.047-39.125,53.039-45.383c26.395-6.605,50.371-0.828,71.113,16.883c14.211,12.133,22.707,27.703,25.945,46.133
		c7.016,39.949-18.363,79.422-57.75,89.422c-22.105,5.613-42.895,2.094-62.211-10.039c-0.766-0.484-1.508-1.016-2.297-1.461
		c-1.711-0.969-3.414-1.203-5.336-0.367c-7.781,3.383-15.602,6.68-23.406,10C497.383,714.571,496.926,714.759,496.09,715.103z
		 M567.027,652.595c0.008,0,0.016,0,0.016,0c0.004,3.18-0.023,6.355,0.016,9.531c0.027,1.973,1.395,3.664,3.211,4.109
		c1.781,0.438,3.84-0.488,4.641-2.305c0.375-0.84,0.469-1.859,0.48-2.801c0.047-4.145,0.051-8.285,0.004-12.426
		c-0.012-1.117,0.184-1.641,1.484-1.898c13.969-2.691,23.406-16.086,21.105-30.031c-2.469-14.961-16.379-25.113-32.293-21.758
		c-12.32,2.598-20.414,12.602-20.965,25.129c-0.109,2.469,1.664,4.535,3.969,4.629c2.426,0.102,4.297-1.621,4.422-4.148
		c0.297-5.906,2.711-10.711,7.516-14.195c5.797-4.203,12.102-4.742,18.441-1.633c6.254,3.07,9.867,8.312,10.094,15.375
		c0.332,10.336-7.215,18.289-17.574,18.852c-3,0.164-4.539,1.734-4.562,4.723C567.012,646.696,567.027,649.646,567.027,652.595z
		 M566.312,681.239c-0.105,2.648,1.812,4.742,4.406,4.809c2.562,0.062,4.719-1.992,4.758-4.531c0.035-2.445-2.016-4.574-4.484-4.648
		C568.461,676.79,566.41,678.704,566.312,681.239z"/>
</g>
</svg>
