<?xml version="1.0" encoding="utf-8"?>
<!-- Generator: Adobe Illustrator 16.0.4, SVG Export Plug-In . SVG Version: 6.00 Build 0)  -->
<!DOCTYPE svg PUBLIC "-//W3C//DTD SVG 1.1//EN" "http://www.w3.org/Graphics/SVG/1.1/DTD/svg11.dtd">
<svg version="1.1" id="Layer_1" xmlns="http://www.w3.org/2000/svg" xmlns:xlink="http://www.w3.org/1999/xlink" x="0px" y="0px"
	 width="74.736px" height="74.897px" viewBox="0 0 74.736 74.897" enable-background="new 0 0 74.736 74.897" xml:space="preserve">
<g>
	<path fill="#FFFFFF" d="M58.583,11.671H16.152c-0.973,0-1.762,0.789-1.762,1.762v42.432c0,0.974,0.789,1.763,1.762,1.763h42.431
		c0.974,0,1.762-0.789,1.762-1.763V13.433C60.345,12.46,59.557,11.671,58.583,11.671z M53.991,23.884
		c-0.67,0.496-1.277,0.948-1.886,1.399c-4.802,3.557-9.604,7.111-14.399,10.679c-0.262,0.193-0.422,0.18-0.675-0.007
		c-5.345-3.971-10.696-7.933-16.046-11.895c-0.054-0.041-0.105-0.086-0.218-0.177C31.866,23.884,42.889,23.884,53.991,23.884z
		 M53.995,45.414c-11.088,0-22.163,0-33.255,0c0-6.515,0-13.019,0-19.572c0.189,0.133,0.355,0.245,0.516,0.364
		c5.294,3.921,10.588,7.844,15.88,11.77c0.161,0.119,0.27,0.151,0.458,0.013c5.409-4.016,10.823-8.026,16.238-12.036
		c0.038-0.028,0.08-0.054,0.164-0.11C53.995,32.393,53.995,38.895,53.995,45.414z"/>
</g>
</svg>
