<svg xmlns="http://www.w3.org/2000/svg" viewBox="0 0 40 30"><defs><style>.cls-1{fill:none;}.cls-2{fill:#fff;}</style></defs><title>Asset 5</title><g id="Layer_2" data-name="Layer 2"><g id="Layer_1-2" data-name="Layer 1"><rect class="cls-1" width="40" height="30"/><path class="cls-2" d="M15.11,15c0-1.55,0-3.1,0-4.65a1.38,1.38,0,0,1,.08-.47.71.71,0,0,1,1-.39,2.21,2.21,0,0,1,.3.14c2.68,1.49,5.33,3,8,4.59a2.49,2.49,0,0,1,.33.21.66.66,0,0,1,0,1.11,2.37,2.37,0,0,1-.29.19l-8,4.62a1.35,1.35,0,0,1-.55.2.71.71,0,0,1-.78-.62,2.1,2.1,0,0,1,0-.29q0-2.32,0-4.65Z"/></g></g></svg>