<?xml version="1.0" encoding="utf-8"?>
<!-- Generator: Adobe Illustrator 16.0.4, SVG Export Plug-In . SVG Version: 6.00 Build 0)  -->
<!DOCTYPE svg PUBLIC "-//W3C//DTD SVG 1.1//EN" "http://www.w3.org/Graphics/SVG/1.1/DTD/svg11.dtd">
<svg version="1.1" id="Layer_1" xmlns="http://www.w3.org/2000/svg" xmlns:xlink="http://www.w3.org/1999/xlink" x="0px" y="0px"
	 width="1300px" height="1280px" viewBox="0 0 1300 1280" enable-background="new 0 0 1300 1280" xml:space="preserve">
<g>
	<path fill-rule="evenodd" clip-rule="evenodd" fill="#FFFFFF" d="M837.199,673.703c0-21.379-0.023-42.758,0.042-64.138
		c0.017-2.15,0.31-4.43,1.059-6.425c1.971-5.303,7.444-7.412,13.292-5.327c1.433,0.521,2.817,1.245,4.17,1.987
		c37.023,20.508,73.469,42.033,110.021,63.363c1.548,0.896,3.121,1.809,4.505,2.933c5.571,4.561,5.506,10.864-0.13,15.351
		c-1.238,0.986-2.623,1.817-4,2.615c-36.787,21.232-73.583,42.449-110.363,63.673c-2.362,1.359-4.789,2.483-7.525,2.744
		c-5.408,0.481-9.985-3.177-10.767-8.608c-0.188-1.335-0.277-2.688-0.277-4.031c-0.025-21.379-0.016-42.75-0.016-64.137
		C837.209,673.703,837.209,673.703,837.199,673.703z"/>
</g>
</svg>
