<svg xmlns="http://www.w3.org/2000/svg" viewBox="0 0 363.87 507.01"><defs><style>.cls-1{fill:#fac4bd;}.cls-2{fill:#f48473;}.cls-3{fill:#ed4532;}.cls-4{fill:#f0523b;}.cls-5{fill:#fff;}.cls-6{fill:#d13b27;opacity:0.7;isolation:isolate;}</style></defs><title>Asset 2</title><g id="Layer_2" data-name="Layer 2"><g id="Layer_1-2" data-name="Layer 1"><circle class="cls-1" cx="127.93" cy="92.13" r="20.61"/><circle class="cls-1" cx="152.51" cy="86.08" r="20.61"/><circle class="cls-2" cx="136.16" cy="104.8" r="20.61"/><path class="cls-3" d="M151.76,91.13a20.52,20.52,0,0,0-10.68,3,20.61,20.61,0,1,0,0,35.26,20.61,20.61,0,1,0,10.68-38.24Z"/><ellipse class="cls-1" cx="125" cy="115.96" rx="22.6" ry="20.61"/><ellipse class="cls-1" cx="156.77" cy="117.66" rx="24.87" ry="23.83"/><circle class="cls-1" cx="64.81" cy="125.58" r="20.61"/><ellipse class="cls-1" cx="57.53" cy="134.47" rx="20.61" ry="14.94"/><ellipse class="cls-1" cx="92.66" cy="119.53" rx="23.87" ry="20.61"/><circle class="cls-2" cx="73.04" cy="138.25" r="20.61"/><ellipse class="cls-3" cx="79.41" cy="141.39" rx="20.61" ry="17.81"/><ellipse class="cls-1" cx="61.88" cy="149.41" rx="22.6" ry="20.61"/><ellipse class="cls-1" cx="89.41" cy="147.05" rx="20.62" ry="19.76"/><circle class="cls-1" cx="261.32" cy="144.01" r="20.61"/><ellipse class="cls-1" cx="268.6" cy="135.12" rx="20.61" ry="14.94"/><ellipse class="cls-1" cx="233.48" cy="150.06" rx="23.87" ry="20.61"/><circle class="cls-2" cx="253.1" cy="131.34" r="20.61"/><ellipse class="cls-3" cx="245.72" cy="129.21" rx="20.61" ry="17.81"/><ellipse class="cls-1" cx="264.25" cy="120.19" rx="22.6" ry="20.61"/><ellipse class="cls-1" cx="236.73" cy="122.55" rx="20.62" ry="19.76"/><circle class="cls-1" cx="189.49" cy="120.49" r="14.64"/><ellipse class="cls-1" cx="183.8" cy="114.63" rx="14.64" ry="10.61" transform="translate(49.51 284.59) rotate(-83.64)"/><ellipse class="cls-1" cx="191.57" cy="140.59" rx="16.95" ry="14.64" transform="translate(30.62 315.4) rotate(-83.64)"/><circle class="cls-2" cx="179.91" cy="125.29" r="14.64"/><ellipse class="cls-3" cx="175.7" cy="130.08" rx="14.64" ry="12.64" transform="translate(26.96 290.28) rotate(-83.64)"/><ellipse class="cls-1" cx="172.91" cy="116.52" rx="16.05" ry="14.64" transform="translate(37.95 275.46) rotate(-83.64)"/><ellipse class="cls-1" cx="172.42" cy="136.14" rx="14.64" ry="14.03" transform="translate(18.01 292.41) rotate(-83.64)"/><circle class="cls-1" cx="109.11" cy="14.64" r="14.64"/><ellipse class="cls-1" cx="100.95" cy="15" rx="10.61" ry="14.64" transform="translate(15.8 71.26) rotate(-41.91)"/><ellipse class="cls-1" cx="125.5" cy="26.47" rx="14.64" ry="16.95" transform="translate(14.42 90.6) rotate(-41.91)"/><circle class="cls-2" cx="106.32" cy="24.99" r="14.64"/><ellipse class="cls-3" cx="109.1" cy="29.27" rx="12.64" ry="14.64" transform="translate(8.36 80.35) rotate(-41.91)"/><ellipse class="cls-1" cx="95.15" cy="24.39" rx="14.64" ry="16.05" transform="translate(8.05 69.8) rotate(-41.91)"/><ellipse class="cls-1" cx="109.45" cy="37.82" rx="14.03" ry="14.64" transform="translate(2.74 82.79) rotate(-41.91)"/><circle class="cls-1" cx="217.75" cy="63.62" r="17.88"/><ellipse class="cls-1" cx="236.21" cy="54.49" rx="15.67" ry="18"/><ellipse class="cls-3" cx="228.08" cy="63.62" rx="15.71" ry="16.63"/><ellipse class="cls-2" cx="229.91" cy="69.66" rx="19.5" ry="18"/><ellipse class="cls-1" cx="231.88" cy="75.48" rx="25.83" ry="18" transform="translate(-11.96 78.04) rotate(-18.63)"/><circle class="cls-1" cx="315.31" cy="137.53" r="13.74"/><ellipse class="cls-1" cx="301.12" cy="130.51" rx="12.04" ry="13.83"/><ellipse class="cls-3" cx="307.37" cy="138.49" rx="12.07" ry="12.77"/><ellipse class="cls-2" cx="305.96" cy="144.17" rx="14.98" ry="13.83"/><ellipse class="cls-1" cx="304.45" cy="146.64" rx="13.83" ry="19.85" transform="translate(68.23 388.28) rotate(-71.37)"/><polygon class="cls-4" points="196.15 166.53 167.73 166.53 21.15 166.53 60.66 507.01 167.73 507.01 195.15 507.01 302.21 507.01 342.72 166.53 196.15 166.53"/><polygon class="cls-1" points="280.2 507.01 313.7 166.53 288.03 166.53 257.53 507.01 280.2 507.01"/><polygon class="cls-1" points="235.54 507.01 257.03 166.53 230.35 166.53 213.87 507.01 235.54 507.01"/><polygon class="cls-1" points="83.67 507.01 50.17 166.53 75.84 166.53 106.34 507.01 83.67 507.01"/><polygon class="cls-1" points="126.55 507.01 105.06 166.53 131.73 166.53 148.22 507.01 126.55 507.01"/><polygon class="cls-1" points="166.92 166.53 197.25 166.53 193.25 507.01 170.92 507.01 166.92 166.53"/><path class="cls-5" d="M11,166.53H352.91a11,11,0,0,0,11-11h0a11,11,0,0,0-11-11H11a11,11,0,0,0-11,11H0A11,11,0,0,0,11,166.53Z"/><polygon class="cls-6" points="341.68 175.27 22.23 175.27 21.15 166.53 342.72 166.53 341.68 175.27"/></g></g></svg>