<svg xmlns="http://www.w3.org/2000/svg" viewBox="0 0 193.96 193.96"><defs><style>.cls-1{fill:#fbac4c;}.cls-2{fill:#fff;}</style></defs><title>Asset 1</title><g id="Layer_2" data-name="Layer 2"><g id="Layer_1-2" data-name="Layer 1"><circle class="cls-1" cx="96.98" cy="96.98" r="96.98"/><g id="ZU1OzU.tif"><path class="cls-2" d="M58.7,146.7c.45-2.67,1-5.91,1.56-9.15,1.54-8.92,3.09-17.83,4.58-26.76a2.15,2.15,0,0,0-.7-1.53C59.61,104.81,55,100.4,50.49,96Q44.64,90.28,38.8,84.58a7.05,7.05,0,0,1-1-1.22c-1.58-2.45-.81-4.76,2-5.34,3.68-.75,7.43-1.21,11.15-1.74q12.45-1.79,24.91-3.52a2.13,2.13,0,0,0,1.8-1.33Q85.29,56,92.94,40.67a13.82,13.82,0,0,1,1.54-2.57A3,3,0,0,1,99.29,38a9.81,9.81,0,0,1,1.48,2.26Q108.39,55.67,116,71.14a2.7,2.7,0,0,0,2.35,1.67c9.2,1.28,18.4,2.61,27.6,3.93l6.65.94a5.3,5.3,0,0,1,.57.06c1.54.39,3.18.75,3.7,2.53s-.43,3-1.54,4.07q-7.11,7-14.26,13.89c-3.83,3.73-7.68,7.44-11.48,11.2A2.07,2.07,0,0,0,129,111q3,17.61,6,35.2a6.29,6.29,0,0,1,.06,1c0,3.27-2.31,4.85-5.25,3.4-3.46-1.71-6.85-3.56-10.27-5.36-7.21-3.8-14.43-7.58-21.61-11.42a2.19,2.19,0,0,0-2.34.08q-15.47,8.21-31,16.37a10.11,10.11,0,0,1-1,.48C60.69,151.92,58.67,150.51,58.7,146.7Z"/></g></g></g></svg>