<?xml version="1.0" encoding="utf-8"?>
<!-- Generator: Adobe Illustrator 16.0.4, SVG Export Plug-In . SVG Version: 6.00 Build 0)  -->
<!DOCTYPE svg PUBLIC "-//W3C//DTD SVG 1.1//EN" "http://www.w3.org/Graphics/SVG/1.1/DTD/svg11.dtd">
<svg version="1.1" id="Layer_1" xmlns="http://www.w3.org/2000/svg" xmlns:xlink="http://www.w3.org/1999/xlink" x="0px" y="0px"
	 width="74.736px" height="74.897px" viewBox="0 0 74.736 74.897" enable-background="new 0 0 74.736 74.897" xml:space="preserve">
<g>
	<path fill="#FFFFFF" d="M59.642,11.671H17.209c-0.973,0-1.762,0.789-1.762,1.762v42.432c0,0.974,0.789,1.763,1.762,1.763h42.433
		c0.973,0,1.761-0.789,1.761-1.763V13.433C61.403,12.46,60.615,11.671,59.642,11.671z M55.691,27.116
		c-0.363,0.33-0.745,0.643-1.134,0.943c-0.197,0.15-0.274,0.312-0.264,0.562c0.087,2.136-0.194,4.232-0.77,6.284
		c-0.495,1.766-1.201,3.449-2.114,5.045c-0.956,1.672-2.104,3.196-3.463,4.559c-1.917,1.92-4.133,3.396-6.649,4.413
		c-2.337,0.944-4.772,1.434-7.29,1.521c-1.769,0.059-3.525-0.053-5.254-0.424c-1.745-0.375-3.436-0.927-5.025-1.754
		c-0.656-0.342-1.305-0.698-1.958-1.049c0.012-0.026,0.022-0.052,0.034-0.079c3.995,0.37,7.598-0.623,10.857-3.082
		c-3.41-0.303-5.688-1.995-6.937-5.158c0.583,0.025,1.106,0.079,1.628,0.062c0.527-0.018,1.052-0.108,1.584-0.202
		c-3.636-1.133-5.595-3.557-5.806-7.377c1.04,0.459,2.087,0.824,3.245,0.835c-3.296-2.74-4.014-6.027-2.235-9.956
		c4.073,4.783,9.164,7.396,15.394,7.828c-0.049-0.477-0.111-0.905-0.131-1.335c-0.109-2.313,0.685-4.278,2.379-5.846
		c1.864-1.723,4.091-2.29,6.562-1.827c1.428,0.268,2.675,0.941,3.703,1.983c0.151,0.154,0.288,0.199,0.509,0.148
		c1.394-0.322,2.729-0.79,3.977-1.496c0.109-0.062,0.224-0.114,0.337-0.168c0.016-0.007,0.037-0.001,0.1-0.001
		c-0.565,1.685-1.608,2.972-3.056,3.965c1.404-0.102,2.715-0.528,4.065-1.072C57.296,25.47,56.545,26.338,55.691,27.116z"/>
</g>
</svg>
