<?xml version="1.0" encoding="utf-8"?>
<!-- Generator: Adobe Illustrator 16.0.4, SVG Export Plug-In . SVG Version: 6.00 Build 0)  -->
<!DOCTYPE svg PUBLIC "-//W3C//DTD SVG 1.1//EN" "http://www.w3.org/Graphics/SVG/1.1/DTD/svg11.dtd">
<svg version="1.1" id="Layer_1" xmlns="http://www.w3.org/2000/svg" xmlns:xlink="http://www.w3.org/1999/xlink" x="0px" y="0px"
	 width="1300px" height="1280px" viewBox="0 0 1300 1280" enable-background="new 0 0 1300 1280" xml:space="preserve">
<g>
	<g>
		<g id="unaza0.tif_1_">
			<g>
				<path fill="#FFFFFF" d="M714.024,769.562c0-19.167,0.012-38.334-0.012-57.489c0-1.289-0.023-2.612-0.319-3.854
					c-1.154-4.726-5.381-6.658-9.723-4.481c-1.068,0.534-2.043,1.254-3.023,1.927c-13.647,9.38-27.254,18.808-40.953,28.106
					c-4.498,3.059-6.803,6.989-6.769,12.504c0.099,15.766,0.053,31.53,0.047,47.297c0,4.91,2.037,8.625,6.211,11.214
					c1.353,0.837,2.653,1.776,3.965,2.683c12.909,8.857,25.825,17.715,38.718,26.591c2.576,1.771,5.287,2.455,8.144,0.899
					c2.978-1.613,3.738-4.423,3.727-7.615C714.013,808.076,714.024,788.817,714.024,769.562z"/>
				<path fill-rule="evenodd" clip-rule="evenodd" fill="#FFFFFF" d="M714.024,769.562c0,19.255-0.012,38.514,0.012,57.78
					c0.012,3.192-0.749,6.002-3.727,7.615c-2.856,1.556-5.567,0.871-8.144-0.899c-12.893-8.876-25.809-17.733-38.718-26.591
					c-1.312-0.906-2.612-1.846-3.965-2.683c-4.174-2.589-6.211-6.304-6.211-11.214c0.006-15.767,0.052-31.531-0.047-47.297
					c-0.034-5.515,2.271-9.445,6.769-12.504c13.699-9.299,27.306-18.727,40.953-28.106c0.98-0.673,1.955-1.393,3.023-1.927
					c4.342-2.177,8.568-0.244,9.723,4.481c0.296,1.242,0.319,2.565,0.319,3.854C714.036,731.229,714.024,750.396,714.024,769.562z"
					/>
			</g>
		</g>
	</g>
	<g>
		<path fill="#FFFFFF" d="M615.377,693.579H501.123c-10.292,0-18.627,8.335-18.627,18.633V826.46
			c0,10.292,8.336,18.634,18.627,18.634h114.254c10.285,0,18.633-8.342,18.633-18.634V712.212
			C634.01,701.914,625.663,693.579,615.377,693.579z M558.248,823.36c-29.836,0-54.019-24.193-54.019-54.03
			c0-29.83,24.182-54.018,54.019-54.018c29.835,0,54.024,24.188,54.024,54.018C612.271,799.167,588.083,823.36,558.248,823.36z"/>
	</g>
	<path fill="#FFFFFF" d="M592.938,769.337c0,19.154-15.528,34.688-34.688,34.688c-19.155,0-34.683-15.533-34.683-34.688
		s15.528-34.688,34.683-34.688C577.41,734.648,592.938,750.183,592.938,769.337z"/>
</g>
</svg>
