<svg xmlns="http://www.w3.org/2000/svg" viewBox="0 0 40 30"><defs><style>.cls-1{fill:none;}.cls-2{fill:#fff;}</style></defs><title>Asset 2</title><g id="Layer_2" data-name="Layer 2"><g id="Layer_1-2" data-name="Layer 1"><rect class="cls-1" width="40" height="30"/><g id="unaza0.tif"><path class="cls-2" d="M28.22,15q0-1.86,0-3.72a1.08,1.08,0,0,0,0-.25.42.42,0,0,0-.63-.29l-.2.12L24.72,12.7a.91.91,0,0,0-.44.81c0,1,0,2,0,3.06a.8.8,0,0,0,.4.73l.26.17,2.51,1.72a.47.47,0,0,0,.53.06.5.5,0,0,0,.24-.49Q28.22,16.89,28.22,15Z"/><path class="cls-2" d="M28.22,15q0,1.87,0,3.74a.5.5,0,0,1-.24.49.47.47,0,0,1-.53-.06l-2.51-1.72-.26-.17a.8.8,0,0,1-.4-.73c0-1,0-2,0-3.06a.91.91,0,0,1,.44-.81l2.65-1.82.2-.12a.42.42,0,0,1,.63.29,1.08,1.08,0,0,1,0,.25Q28.22,13.15,28.22,15Z"/></g><path class="cls-2" d="M21.83,10.09h-7.4a1.21,1.21,0,0,0-1.21,1.21v7.4a1.21,1.21,0,0,0,1.21,1.21h7.4A1.21,1.21,0,0,0,23,18.7V11.3A1.21,1.21,0,0,0,21.83,10.09Zm-3.7,8.41a3.5,3.5,0,1,1,3.5-3.5A3.5,3.5,0,0,1,18.13,18.5Z"/><path class="cls-2" d="M20.37,15a2.25,2.25,0,1,1-2.25-2.25A2.25,2.25,0,0,1,20.37,15Z"/></g></g></svg>