<svg xmlns="http://www.w3.org/2000/svg" viewBox="0 0 41 31"><defs><style>.cls-1{fill:none;stroke:#000;stroke-miterlimit:10;}.cls-2{fill:#fff;}</style></defs><title>Asset 7</title><g id="Layer_2" data-name="Layer 2"><g id="Layer_1-2" data-name="Layer 1"><rect class="cls-1" x="0.5" y="0.5" width="40" height="30"/><path class="cls-2" d="M27.91,11a.47.47,0,0,0-.71-.33,1.9,1.9,0,0,0-.22.14L24,12.9a1,1,0,0,0-.49.91c0,1.15,0,2.3,0,3.46a.9.9,0,0,0,.45.82l.29.2,2.83,1.94a.54.54,0,0,0,.59.07"/><path class="cls-2" d="M27.66,20.29a.54.54,0,0,1-.59-.07l-2.83-1.94-.29-.2a.9.9,0,0,1-.45-.82c0-1.15,0-2.3,0-3.46A1,1,0,0,1,24,12.9l3-2.05a1.9,1.9,0,0,1,.22-.14.47.47,0,0,1,.71.33"/><path class="cls-2" d="M20.73,10H12.38A1.36,1.36,0,0,0,11,11.33v8.35A1.36,1.36,0,0,0,12.38,21h8.35a1.36,1.36,0,0,0,1.36-1.36V11.33A1.36,1.36,0,0,0,20.73,10Zm-4.17,9.48A3.95,3.95,0,1,1,20.5,15.5,3.95,3.95,0,0,1,16.55,19.45Z"/><path class="cls-2" d="M19.09,15.5A2.53,2.53,0,1,1,16.55,13,2.53,2.53,0,0,1,19.09,15.5Z"/></g></g></svg>