<?xml version="1.0" encoding="utf-8"?>
<!-- Generator: Adobe Illustrator 16.0.4, SVG Export Plug-In . SVG Version: 6.00 Build 0)  -->
<!DOCTYPE svg PUBLIC "-//W3C//DTD SVG 1.1//EN" "http://www.w3.org/Graphics/SVG/1.1/DTD/svg11.dtd">
<svg version="1.1" id="Layer_1" xmlns="http://www.w3.org/2000/svg" xmlns:xlink="http://www.w3.org/1999/xlink" x="0px" y="0px"
	 width="1300px" height="1280px" viewBox="0 0 1300 1280" enable-background="new 0 0 1300 1280" xml:space="preserve">
<g>
	<path fill-rule="evenodd" clip-rule="evenodd" fill="#FFFFFF" d="M669.496,777.409c0,18.234,0,36.465,0,54.704
		c0,2.75-1.611,5.222-4.079,6.251c-2.438,1.024-5.118,0.428-7.147-1.603c-10.828-10.824-21.662-21.643-32.461-32.489
		c-0.775-0.78-1.542-1.076-2.623-1.067c-8.135,0.043-16.271,0.02-24.41,0.029c-2.533,0-4.695-0.818-5.987-3.079
		c-0.588-1.029-1.053-2.308-1.058-3.473c-0.08-12.943-0.057-25.891-0.047-38.834c0.005-3.765,2.941-6.509,6.998-6.519
		c8.257-0.019,16.51-0.019,24.768,0.01c0.911,0.004,1.555-0.264,2.199-0.907c10.809-10.843,21.637-21.666,32.461-32.494
		c2.176-2.166,4.836-2.806,7.326-1.743c2.529,1.066,4.061,3.529,4.061,6.504C669.496,740.93,669.496,759.17,669.496,777.409z"/>
	<path fill-rule="evenodd" clip-rule="evenodd" fill="#FFFFFF" d="M708.32,779.815c-0.695,8.327-5.259,16.595-15.438,21.157
		c-3.201,1.434-6.608,0.301-8.413-2.721c-1.636-2.74-0.968-5.969,1.767-8.116c1.326-1.038,2.764-1.922,4.155-2.867
		c4.046-2.749,5.339-6.716,4.972-11.378c-0.305-3.891-2.143-6.875-5.47-8.953c-1.222-0.766-2.43-1.564-3.562-2.448
		c-2.815-2.199-3.511-5.419-1.861-8.191c1.805-3.026,5.132-4.022,8.427-2.749C702.879,757.426,708.561,768.344,708.32,779.815z"/>
</g>
</svg>
